
<region>
sample=..\Samples\fx\fx_handling.flac
key=80
loop_mode=loop_continuous

<region>
sample=..\Samples\fx\fx_incidental_1_rr1.flac
key=72
seq_length=4

<region>
sample=..\Samples\fx\fx_incidental_1_rr2.flac
key=72
seq_length=4
seq_position=2

<region>
sample=..\Samples\fx\fx_incidental_1_rr3.flac
key=72
seq_length=4
seq_position=3

<region>
sample=..\Samples\fx\fx_incidental_1_rr4.flac
key=72
seq_length=4
seq_position=4

<region>
sample=..\Samples\fx\fx_incidental_2_rr1.flac
key=73
seq_length=4

<region>
sample=..\Samples\fx\fx_incidental_2_rr2.flac
key=73
seq_length=4
seq_position=2

<region>
sample=..\Samples\fx\fx_incidental_2_rr3.flac
key=73
seq_length=4
seq_position=3

<region>
sample=..\Samples\fx\fx_incidental_2_rr4.flac
key=73
seq_length=4
seq_position=4

<region>
sample=..\Samples\fx\fx_perc_1_f_rr1.flac
key=69
lovel=64
seq_length=4

<region>
sample=..\Samples\fx\fx_perc_1_f_rr2.flac
key=69
lovel=64
seq_length=4
seq_position=2

<region>
sample=..\Samples\fx\fx_perc_1_f_rr3.flac
key=69
lovel=64
seq_length=4
seq_position=3

<region>
sample=..\Samples\fx\fx_perc_1_f_rr4.flac
key=69
lovel=64
seq_length=4
seq_position=4

<region>
sample=..\Samples\fx\fx_perc_1_p_rr1.flac
key=69
hivel=63
seq_length=4
amp_velcurve_63=1

<region>
sample=..\Samples\fx\fx_perc_1_p_rr2.flac
key=69
hivel=63
seq_length=4
seq_position=2
amp_velcurve_63=1

<region>
sample=..\Samples\fx\fx_perc_1_p_rr3.flac
key=69
hivel=63
seq_length=4
seq_position=3
amp_velcurve_63=1

<region>
sample=..\Samples\fx\fx_perc_1_p_rr4.flac
key=69
hivel=63
seq_length=4
seq_position=4
amp_velcurve_63=1

<region>
sample=..\Samples\fx\fx_perc_2_f_rr1.flac
key=70
lovel=64
seq_length=4

<region>
sample=..\Samples\fx\fx_perc_2_f_rr2.flac
key=70
lovel=64
seq_length=4
seq_position=2

<region>
sample=..\Samples\fx\fx_perc_2_f_rr3.flac
key=70
lovel=64
seq_length=4
seq_position=3

<region>
sample=..\Samples\fx\fx_perc_2_f_rr4.flac
key=70
lovel=64
seq_length=4
seq_position=4

<region>
sample=..\Samples\fx\fx_perc_2_p_rr1.flac
key=70
hivel=63
seq_length=4
amp_velcurve_63=1

<region>
sample=..\Samples\fx\fx_perc_2_p_rr2.flac
key=70
hivel=63
seq_length=4
seq_position=2
amp_velcurve_63=1

<region>
sample=..\Samples\fx\fx_perc_2_p_rr3.flac
key=70
hivel=63
seq_length=4
seq_position=3
amp_velcurve_63=1

<region>
sample=..\Samples\fx\fx_perc_2_p_rr4.flac
key=70
hivel=63
seq_length=4
seq_position=4
amp_velcurve_63=1

<region>
sample=..\Samples\fx\fx_perc_3_f_rr1.flac
key=71
lovel=64
seq_length=4

<region>
sample=..\Samples\fx\fx_perc_3_f_rr2.flac
key=71
lovel=64
seq_length=4
seq_position=2

<region>
sample=..\Samples\fx\fx_perc_3_f_rr3.flac
key=71
lovel=64
seq_length=4
seq_position=3

<region>
sample=..\Samples\fx\fx_perc_3_f_rr4.flac
key=71
lovel=64
seq_length=4
seq_position=4

<region>
sample=..\Samples\fx\fx_perc_3_p_rr1.flac
key=71
hivel=63
seq_length=4
amp_velcurve_63=1

<region>
sample=..\Samples\fx\fx_perc_3_p_rr2.flac
key=71
hivel=63
seq_length=4
seq_position=2
amp_velcurve_63=1

<region>
sample=..\Samples\fx\fx_perc_3_p_rr3.flac
key=71
hivel=63
seq_length=4
seq_position=3
amp_velcurve_63=1

<region>
sample=..\Samples\fx\fx_perc_3_p_rr4.flac
key=71
hivel=63
seq_length=4
seq_position=4
amp_velcurve_63=1

<region>
sample=..\Samples\fx\fx_slide_1_rr1.flac
key=74
seq_length=4

<region>
sample=..\Samples\fx\fx_slide_1_rr2.flac
key=74
seq_length=4
seq_position=2

<region>
sample=..\Samples\fx\fx_slide_1_rr3.flac
key=74
seq_length=4
seq_position=3

<region>
sample=..\Samples\fx\fx_slide_1_rr4.flac
key=74
seq_length=4
seq_position=4

<region>
sample=..\Samples\fx\fx_slide_2_rr1.flac
key=75
seq_length=4

<region>
sample=..\Samples\fx\fx_slide_2_rr2.flac
key=75
seq_length=4
seq_position=2

<region>
sample=..\Samples\fx\fx_slide_2_rr3.flac
key=75
seq_length=4
seq_position=3

<region>
sample=..\Samples\fx\fx_slide_2_rr4.flac
key=75
seq_length=4
seq_position=4

<region>
sample=..\Samples\fx\fx_slide_3_rr1.flac
key=76
seq_length=3

<region>
sample=..\Samples\fx\fx_slide_3_rr2.flac
key=76
seq_length=3
seq_position=2

<region>
sample=..\Samples\fx\fx_slide_3_rr3.flac
key=76
seq_length=3
seq_position=3

<region>
sample=..\Samples\fx\fx_slide_4_rr1.flac
key=77
seq_length=3

<region>
sample=..\Samples\fx\fx_slide_4_rr2.flac
key=77
seq_length=3
seq_position=2

<region>
sample=..\Samples\fx\fx_slide_4_rr4.flac
key=77
seq_length=3
seq_position=3

<region>
sample=..\Samples\fx\fx_strum_1_rr1.flac
key=78
seq_length=4

<region>
sample=..\Samples\fx\fx_strum_1_rr2.flac
key=78
seq_length=4
seq_position=2

<region>
sample=..\Samples\fx\fx_strum_1_rr3.flac
key=78
seq_length=4
seq_position=3

<region>
sample=..\Samples\fx\fx_strum_1_rr4.flac
key=78
seq_length=4
seq_position=4

<region>
sample=..\Samples\fx\fx_strum_2_rr1.flac
key=79
seq_length=4

<region>
sample=..\Samples\fx\fx_strum_2_rr2.flac
key=79
seq_length=4
seq_position=2

<region>
sample=..\Samples\fx\fx_strum_2_rr3.flac
key=79
seq_length=4
seq_position=3

<region>
sample=..\Samples\fx\fx_strum_2_rr4.flac
key=79
seq_length=4
seq_position=4
